<svg width="20" height="20" xmlns="http://www.w3.org/2000/svg" version="1.1">

 <g>
  <title>Layer 1</title>
  <path id="svg_1" d="m9.5,19c-0.084,0 -0.167,-0.021 -0.243,-0.063c-0.094,-0.052 -2.326,-1.301 -4.592,-3.347c-1.341,-1.21 -2.411,-2.448 -3.183,-3.68c-0.984,-1.571 -1.482,-3.139 -1.482,-4.66c0,-2.895 2.355,-5.25 5.25,-5.25c0.98,0 2.021,0.367 2.931,1.034c0.532,0.39 0.985,0.86 1.319,1.359c0.334,-0.499 0.787,-0.969 1.319,-1.359c0.91,-0.667 1.951,-1.034 2.931,-1.034c2.895,0 5.25,2.355 5.25,5.25c0,1.521 -0.499,3.089 -1.482,4.66c-0.771,1.232 -1.842,2.47 -3.182,3.68c-2.266,2.046 -4.498,3.295 -4.592,3.347c-0.076,0.042 -0.159,0.063 -0.243,0.063l-0.001,0z" fill="#000000"/>
 </g>
</svg>